<?xml version="1.0" encoding="UTF-8"?>
<svg id="Logo_secundario_horizontal" data-name="Logo secundario horizontal" xmlns="http://www.w3.org/2000/svg" xmlns:xlink="http://www.w3.org/1999/xlink" viewBox="0 0 340.157 340.157">
  <defs>
    <clipPath id="clippath">
      <path d="M142.518,261.101c-.013-.021-.026-.042-.039-.063-2.072-4.575-4.211-9.125-6.426-13.642-8.312-24.273-2.81-52.272,16.522-71.604,4.926-4.926,10.448-9.477,16.397-13.685,3.908,13.502,6.308,27.079,6.308,40.119,0,24.816-13.111,46.618-32.761,58.874ZM184.508,222.148c-5.131,20.229-17.895,37.433-35.026,48.393.993,1.131,2.013,2.246,3.092,3.325,23.746,23.745,60.567,26.627,87.501,8.665-2.431-9.856-7.4-22.54-17.566-34.593-12.826-15.205-28.273-22.476-38.002-25.789ZM98.375,112.381c-11.908,8.966-24.808,16.521-38.424,22.553,17.686,19.615,33.865,40.728,48.138,62.892,4.409,6.846,8.635,13.834,12.709,20.918,1.428-19.359,9.629-37.368,23.495-51.235,6.249-6.249,13.318-11.917,20.931-17.068-8.873-25.212-22.247-49.509-34.479-68.85-9.576,11.453-20.426,21.796-32.369,30.789ZM124.044,71.287c-7.464-11.157-14.011-19.952-18.113-25.268-9.293,12.049-31.1,41.909-47.802,76.88,11.725-5.441,22.861-12.09,33.2-19.874,12.191-9.18,23.168-19.852,32.715-31.738ZM98.241,204.168c-14.261-22.148-30.478-43.214-48.222-62.743-7.957,20.087-13.436,41.063-13.436,60.801,0,38.239,31.109,69.348,69.348,69.348,9.227,0,18.031-1.826,26.092-5.112-2.824-4.702-5.141-9.669-6.943-14.829-8.048-16.32-17.022-32.223-26.838-47.466ZM264.957,190.652c-21.465,15.241-43.189,23.109-61.48,27.075,8.995,4.864,19.048,12.061,27.986,22.658,9.833,11.659,15.387,23.828,18.533,34.101.216-.21.439-.407.653-.621,31.481-31.482,47.769-87.097,55.656-125.375-9.714,14.27-23.066,29.18-41.348,42.161ZM186.992,202.227c0,2.182-.112,4.336-.282,6.475,19.218-2.348,45.548-9.197,71.467-27.599,29.546-20.979,45.267-47.384,53.398-66.662-21.929,2.86-86.122,13.227-132.313,40.968,4.762,15.59,7.73,31.461,7.73,46.819Z" fill="#fff"/>
    </clipPath>
  </defs>
  <path d="M142.518,261.101c-.013-.021-.026-.042-.039-.063-2.072-4.575-4.211-9.125-6.426-13.642-8.312-24.273-2.81-52.272,16.522-71.604,4.926-4.926,10.448-9.477,16.397-13.685,3.908,13.502,6.308,27.079,6.308,40.119,0,24.816-13.111,46.618-32.761,58.874ZM184.508,222.148c-5.131,20.229-17.895,37.433-35.026,48.393.993,1.131,2.013,2.246,3.092,3.325,23.746,23.745,60.567,26.627,87.501,8.665-2.431-9.856-7.4-22.54-17.566-34.593-12.826-15.205-28.273-22.476-38.002-25.789ZM98.375,112.381c-11.908,8.966-24.808,16.521-38.424,22.553,17.686,19.615,33.865,40.728,48.138,62.892,4.409,6.846,8.635,13.834,12.709,20.918,1.428-19.359,9.629-37.368,23.495-51.235,6.249-6.249,13.318-11.917,20.931-17.068-8.873-25.212-22.247-49.509-34.479-68.85-9.576,11.453-20.426,21.796-32.369,30.789ZM124.044,71.287c-7.464-11.157-14.011-19.952-18.113-25.268-9.293,12.049-31.1,41.909-47.802,76.88,11.725-5.441,22.861-12.09,33.2-19.874,12.191-9.18,23.168-19.852,32.715-31.738ZM98.241,204.168c-14.261-22.148-30.478-43.214-48.222-62.743-7.957,20.087-13.436,41.063-13.436,60.801,0,38.239,31.109,69.348,69.348,69.348,9.227,0,18.031-1.826,26.092-5.112-2.824-4.702-5.141-9.669-6.943-14.829-8.048-16.32-17.022-32.223-26.838-47.466ZM264.957,190.652c-21.465,15.241-43.189,23.109-61.48,27.075,8.995,4.864,19.048,12.061,27.986,22.658,9.833,11.659,15.387,23.828,18.533,34.101.216-.21.439-.407.653-.621,31.481-31.482,47.769-87.097,55.656-125.375-9.714,14.27-23.066,29.18-41.348,42.161ZM186.992,202.227c0,2.182-.112,4.336-.282,6.475,19.218-2.348,45.548-9.197,71.467-27.599,29.546-20.979,45.267-47.384,53.398-66.662-21.929,2.86-86.122,13.227-132.313,40.968,4.762,15.59,7.73,31.461,7.73,46.819Z" fill="#fff"/>
  <g clip-path="url(#clippath)">
    <rect x="27.883" y="23.883" width="292.391" height="292.391" fill="#fff"/>
  </g>
</svg>